<?xml version="1.0" encoding="UTF-8"?>
<svg xmlns="http://www.w3.org/2000/svg" xmlns:xlink="http://www.w3.org/1999/xlink" width="18pt" height="18pt" viewBox="0 0 18 18" version="1.1">
<g id="surface900">
<path style=" stroke:none;fill-rule:nonzero;fill:rgb(100%,27.058825%,22.745098%);fill-opacity:1;" d="M 7.800781 1.800781 C 7.640625 1.796875 7.484375 1.859375 7.371094 1.972656 C 7.257812 2.085938 7.191406 2.238281 7.191406 2.398438 L 3.601562 2.398438 C 3.382812 2.398438 3.183594 2.511719 3.074219 2.699219 C 2.964844 2.882812 2.964844 3.117188 3.074219 3.300781 C 3.183594 3.488281 3.382812 3.601562 3.601562 3.601562 L 14.398438 3.601562 C 14.617188 3.601562 14.816406 3.488281 14.925781 3.300781 C 15.035156 3.117188 15.035156 2.882812 14.925781 2.699219 C 14.816406 2.511719 14.617188 2.398438 14.398438 2.398438 L 10.808594 2.398438 C 10.808594 2.238281 10.742188 2.085938 10.628906 1.972656 C 10.515625 1.859375 10.359375 1.796875 10.199219 1.800781 Z M 3.601562 4.800781 L 3.601562 14.398438 C 3.601562 15.0625 4.136719 15.601562 4.800781 15.601562 L 13.199219 15.601562 C 13.863281 15.601562 14.398438 15.0625 14.398438 14.398438 L 14.398438 4.800781 Z M 7.199219 7.800781 C 7.351562 7.800781 7.507812 7.859375 7.625 7.976562 L 9 9.351562 L 10.375 7.976562 C 10.609375 7.742188 10.988281 7.742188 11.222656 7.976562 C 11.457031 8.210938 11.457031 8.589844 11.222656 8.824219 L 9.847656 10.199219 L 11.222656 11.574219 C 11.457031 11.808594 11.457031 12.191406 11.222656 12.425781 C 11.105469 12.542969 10.953125 12.601562 10.800781 12.601562 C 10.644531 12.601562 10.492188 12.542969 10.375 12.425781 L 9 11.046875 L 7.625 12.425781 C 7.507812 12.542969 7.355469 12.601562 7.199219 12.601562 C 7.046875 12.601562 6.894531 12.542969 6.777344 12.425781 C 6.542969 12.191406 6.542969 11.808594 6.777344 11.574219 L 8.152344 10.199219 L 6.777344 8.824219 C 6.542969 8.589844 6.542969 8.210938 6.777344 7.976562 C 6.894531 7.859375 7.046875 7.800781 7.199219 7.800781 Z M 7.199219 7.800781 "/>
</g>
</svg>
